# xmcd CD database file
#
# Track frame offsets:
#	182
#	22945
#	38255
#	46740
#	60852
#	73877
#	86967
#	98800
#	112110
#	129620
#	141642
#	156527
#	174685
#	187757
#	204202
#	219665
#	235702
#	245707
#	257857
#	268050
#	278910
#	294335
#	310775
#	328945
#
# Disc length: 4656 seconds
#
# Revision: 2
# Processed by: cddbd v1.4PL0 Copyright (c) Steve Scherf et al.
# Submitted via: CDex 1.40PlusFr
#
DISCID=68122e18
DTITLE=Flower POwer - flower power
DYEAR=1994
DGENRE=Compil
TTITLE0=Joe Cocker - With a little help from my friends
TTITLE1=Canned Heat - On the road again
TTITLE2=Box Tpos - The letter
TTITLE3=Sonny and Cher - I got you babe
TTITLE4=Scott McKenzie San Francisco
TTITLE5=Turtles - Happy together
TTITLE6=Mama's and Papa's - California dreaming
TTITLE7=Jefferson Airplane  - Somebody to love
TTITLE8=The Fifth Dimension - Aquarium - Let the sunshine
TTITLE9=Lovin' Spoonful - Summer in the city
TTITLE10=Santana - Black magic woman
TTITLE11=Jimi Hendrix - Hey joe
TTITLE12=Iron Butterfly - In a gadda da vida
TTITLE13=Steppenwolf - Born to be wild
TTITLE14=Sonny and Cher - The beat goes on
TTITLE15=Barry McGuire - Eve of destruction
TTITLE16=American Breed - Bend me shape me
TTITLE17=Country Joe The Fish - Fells like i'm fixing to die rag
TTITLE18=Lovin' Spoonful - Daydream
TTITLE19=Lemon Pipers - Green Tambourine
TTITLE20=Mama's and Papa's - Monday monday
TTITLE21=Donovan - Mellow Yellow
TTITLE22=Procol Harum - A whiter shade of pale
TTITLE23=The Animals - The house of the rising sun
EXTD=Folwer power\nen route vers woodstock\n24 titres en version originale YEAR: 1994
EXTT0=
EXTT1=
EXTT2=
EXTT3=
EXTT4=
EXTT5=
EXTT6=
EXTT7=
EXTT8=
EXTT9=
EXTT10=
EXTT11=
EXTT12=
EXTT13=
EXTT14=
EXTT15=
EXTT16=
EXTT17=
EXTT18=
EXTT19=
EXTT20=
EXTT21=
EXTT22=
EXTT23=
PLAYORDER=
